<svg width="32" height="32" viewBox="0 0 32 32" fill="none" xmlns="http://www.w3.org/2000/svg">
<path d="M29.3332 7.73337C28.331 8.16816 27.2711 8.45559 26.1865 8.5867C27.3307 7.90313 28.1882 6.82775 28.5998 5.56004C27.5246 6.20012 26.3475 6.6511 25.1198 6.89337C24.2992 6.00346 23.2065 5.4111 22.0129 5.20917C20.8194 5.00724 19.5926 5.20718 18.5249 5.77762C17.4572 6.34806 16.6091 7.25674 16.1135 8.36115C15.6179 9.46556 15.5029 10.7032 15.7865 11.88C13.6124 11.7701 11.4858 11.204 9.54471 10.2185C7.60366 9.23306 5.89163 7.85029 4.51984 6.16004C4.03869 7.00026 3.78586 7.9518 3.7865 8.92004C3.7848 9.81921 4.00546 10.7049 4.42884 11.4981C4.85223 12.2914 5.4652 12.9676 6.21317 13.4667C5.34381 13.443 4.49302 13.2098 3.73317 12.7867V12.8534C3.73969 14.1132 4.18116 15.3322 4.98292 16.304C5.78468 17.2758 6.89751 17.9409 8.13317 18.1867C7.65751 18.3315 7.16367 18.4078 6.6665 18.4134C6.32236 18.4093 5.97907 18.3781 5.63984 18.32C5.99172 19.4038 6.67267 20.3509 7.58794 21.0296C8.50321 21.7083 9.60727 22.0848 10.7465 22.1067C8.82277 23.6204 6.44768 24.4465 3.99984 24.4534C3.55415 24.4548 3.10882 24.4281 2.6665 24.3734C5.16574 25.987 8.07825 26.8437 11.0532 26.84C13.1061 26.8614 15.1427 26.4734 17.044 25.6988C18.9453 24.9242 20.6732 23.7785 22.1268 22.3287C23.5804 20.8788 24.7305 19.1539 25.5099 17.2546C26.2894 15.3553 26.6826 13.3197 26.6665 11.2667V10.56C27.7128 9.77978 28.6151 8.82327 29.3332 7.73337Z" fill="#E76F51"/>
</svg>
