<svg width="142" height="30" viewBox="0 0 142 30" fill="none" xmlns="http://www.w3.org/2000/svg">
<path d="M21.4 10.56C21.4 12.1867 21.0267 13.68 20.28 15.04C19.5333 16.3733 18.3867 17.4533 16.84 18.28C15.2933 19.1067 13.3733 19.52 11.08 19.52H6.84V29.6H0V1.52H11.08C13.32 1.52 15.2133 1.90667 16.76 2.68C18.3067 3.45333 19.4667 4.52 20.24 5.88C21.0133 7.24 21.4 8.8 21.4 10.56ZM10.56 14.08C11.8667 14.08 12.84 13.7733 13.48 13.16C14.12 12.5467 14.44 11.68 14.44 10.56C14.44 9.44 14.12 8.57333 13.48 7.96C12.84 7.34667 11.8667 7.04 10.56 7.04H6.84V14.08H10.56Z" fill="white"/>
<path d="M31.4009 0V29.6H24.5609V0H31.4009Z" fill="white"/>
<path d="M34.5978 18.4C34.5978 16.1067 35.0245 14.0933 35.8778 12.36C36.7578 10.6267 37.9445 9.29333 39.4378 8.36C40.9311 7.42667 42.5978 6.96 44.4378 6.96C46.0111 6.96 47.3845 7.28 48.5578 7.92C49.7578 8.56 50.6778 9.4 51.3178 10.44V7.28H58.1578V29.6H51.3178V26.44C50.6511 27.48 49.7178 28.32 48.5178 28.96C47.3445 29.6 45.9711 29.92 44.3978 29.92C42.5845 29.92 40.9311 29.4533 39.4378 28.52C37.9445 27.56 36.7578 26.2133 35.8778 24.48C35.0245 22.72 34.5978 20.6933 34.5978 18.4ZM51.3178 18.44C51.3178 16.7333 50.8378 15.3867 49.8778 14.4C48.9445 13.4133 47.7978 12.92 46.4378 12.92C45.0778 12.92 43.9178 13.4133 42.9578 14.4C42.0245 15.36 41.5578 16.6933 41.5578 18.4C41.5578 20.1067 42.0245 21.4667 42.9578 22.48C43.9178 23.4667 45.0778 23.96 46.4378 23.96C47.7978 23.96 48.9445 23.4667 49.8778 22.48C50.8378 21.4933 51.3178 20.1467 51.3178 18.44Z" fill="white"/>
<path d="M76.3063 7.04C78.9196 7.04 80.9996 7.89333 82.5462 9.6C84.1196 11.28 84.9062 13.6 84.9062 16.56V29.6H78.1062V17.48C78.1062 15.9867 77.7196 14.8267 76.9463 14C76.1729 13.1733 75.1329 12.76 73.8262 12.76C72.5196 12.76 71.4796 13.1733 70.7063 14C69.9329 14.8267 69.5462 15.9867 69.5462 17.48V29.6H62.7062V7.28H69.5462V10.24C70.2396 9.25333 71.1729 8.48 72.3463 7.92C73.5196 7.33333 74.8396 7.04 76.3063 7.04Z" fill="white"/>
<path d="M88.0994 15.52C88.0994 12.7467 88.6994 10.28 89.8994 8.12C91.0994 5.93333 92.766 4.24 94.8994 3.04C97.0594 1.81333 99.4994 1.2 102.219 1.2C105.553 1.2 108.406 2.08 110.779 3.84C113.153 5.6 114.739 8 115.539 11.04H108.019C107.459 9.86667 106.659 8.97333 105.619 8.36C104.606 7.74667 103.446 7.44 102.139 7.44C100.033 7.44 98.326 8.17333 97.0194 9.64C95.7127 11.1067 95.0594 13.0667 95.0594 15.52C95.0594 17.9733 95.7127 19.9333 97.0194 21.4C98.326 22.8667 100.033 23.6 102.139 23.6C103.446 23.6 104.606 23.2933 105.619 22.68C106.659 22.0667 107.459 21.1733 108.019 20H115.539C114.739 23.04 113.153 25.44 110.779 27.2C108.406 28.9333 105.553 29.8 102.219 29.8C99.4994 29.8 97.0594 29.2 94.8994 28C92.766 26.7733 91.0994 25.08 89.8994 22.92C88.6994 20.76 88.0994 18.2933 88.0994 15.52Z" fill="#E76F51"/>
<path d="M129.488 29.92C127.301 29.92 125.328 29.4533 123.568 28.52C121.835 27.5867 120.461 26.2533 119.448 24.52C118.461 22.7867 117.968 20.76 117.968 18.44C117.968 16.1467 118.475 14.1333 119.488 12.4C120.501 10.64 121.888 9.29333 123.648 8.36C125.408 7.42667 127.381 6.96 129.568 6.96C131.755 6.96 133.728 7.42667 135.488 8.36C137.248 9.29333 138.635 10.64 139.648 12.4C140.661 14.1333 141.168 16.1467 141.168 18.44C141.168 20.7333 140.648 22.76 139.608 24.52C138.595 26.2533 137.195 27.5867 135.408 28.52C133.648 29.4533 131.675 29.92 129.488 29.92ZM129.488 24C130.795 24 131.901 23.52 132.808 22.56C133.741 21.6 134.208 20.2267 134.208 18.44C134.208 16.6533 133.755 15.28 132.848 14.32C131.968 13.36 130.875 12.88 129.568 12.88C128.235 12.88 127.128 13.36 126.248 14.32C125.368 15.2533 124.928 16.6267 124.928 18.44C124.928 20.2267 125.355 21.6 126.208 22.56C127.088 23.52 128.181 24 129.488 24Z" fill="#E76F51"/>
</svg>
