<svg width="32" height="32" viewBox="0 0 32 32" fill="none" xmlns="http://www.w3.org/2000/svg">
<path d="M27.8665 2.66663H4.13317C3.74419 2.66663 3.37113 2.82115 3.09608 3.0962C2.82103 3.37126 2.6665 3.74431 2.6665 4.13329V27.8666C2.6665 28.2556 2.82103 28.6287 3.09608 28.9037C3.37113 29.1788 3.74419 29.3333 4.13317 29.3333H16.9065V19H13.4398V15H16.9065V12C16.8347 11.2956 16.9178 10.5841 17.1501 9.91534C17.3824 9.24656 17.7582 8.63669 18.2511 8.12851C18.7441 7.62033 19.3422 7.22615 20.0036 6.97361C20.665 6.72107 21.3737 6.6163 22.0798 6.66663C23.1176 6.66024 24.1549 6.71366 25.1865 6.82663V10.4266H23.0665C21.3865 10.4266 21.0665 11.2266 21.0665 12.3866V14.96H25.0665L24.5465 18.96H21.0665V29.3333H27.8665C28.0591 29.3333 28.2498 29.2954 28.4278 29.2216C28.6057 29.1479 28.7674 29.0399 28.9036 28.9037C29.0398 28.7675 29.1478 28.6058 29.2215 28.4279C29.2952 28.25 29.3332 28.0592 29.3332 27.8666V4.13329C29.3332 3.94069 29.2952 3.74997 29.2215 3.57202C29.1478 3.39408 29.0398 3.2324 28.9036 3.0962C28.7674 2.96001 28.6057 2.85198 28.4278 2.77827C28.2498 2.70456 28.0591 2.66663 27.8665 2.66663Z" fill="#E76F51"/>
</svg>
